<mxfile host="app.diagrams.net" modified="2024-07-06T18:09:32.589Z" agent="Mozilla/5.0 (Windows NT 10.0; Win64; x64) AppleWebKit/537.36 (KHTML, like Gecko) Chrome/126.0.0.0 Safari/537.36" etag="l-ALX_qLhosxx1WZ66AK" version="24.6.4" type="device">
  <diagram name="PÃ¡gina-1" id="FHJF_R3jWST7cp1bdjdP">
    <mxGraphModel dx="1050" dy="1741" grid="1" gridSize="10" guides="1" tooltips="1" connect="1" arrows="1" fold="1" page="1" pageScale="1" pageWidth="827" pageHeight="1169" background="#FFFFFF" math="0" shadow="0">
      <root>
        <mxCell id="0" />
        <mxCell id="1" parent="0" />
        <mxCell id="0F8t5wIPEfTGD16BmR4i-1" value="Region" style="shape=table;startSize=30;container=1;collapsible=1;childLayout=tableLayout;fixedRows=1;rowLines=0;fontStyle=1;align=center;resizeLast=1;html=1;labelBackgroundColor=none;fillColor=#21C0A5;strokeColor=#006658;fontColor=#5C5C5C;rounded=1;sketch=1;curveFitting=1;jiggle=2;" parent="1" vertex="1">
          <mxGeometry x="1061" y="130" width="180" height="90" as="geometry" />
        </mxCell>
        <mxCell id="0F8t5wIPEfTGD16BmR4i-2" value="" style="shape=tableRow;horizontal=0;startSize=0;swimlaneHead=0;swimlaneBody=0;fillColor=none;collapsible=0;dropTarget=0;points=[[0,0.5],[1,0.5]];portConstraint=eastwest;top=0;left=0;right=0;bottom=1;labelBackgroundColor=none;strokeColor=#006658;fontColor=#5C5C5C;rounded=1;sketch=1;curveFitting=1;jiggle=2;" parent="0F8t5wIPEfTGD16BmR4i-1" vertex="1">
          <mxGeometry y="30" width="180" height="30" as="geometry" />
        </mxCell>
        <mxCell id="0F8t5wIPEfTGD16BmR4i-3" value="PK" style="shape=partialRectangle;connectable=0;fillColor=none;top=0;left=0;bottom=0;right=0;fontStyle=1;overflow=hidden;whiteSpace=wrap;html=1;labelBackgroundColor=none;strokeColor=#006658;fontColor=#5C5C5C;rounded=1;sketch=1;curveFitting=1;jiggle=2;" parent="0F8t5wIPEfTGD16BmR4i-2" vertex="1">
          <mxGeometry width="30" height="30" as="geometry">
            <mxRectangle width="30" height="30" as="alternateBounds" />
          </mxGeometry>
        </mxCell>
        <mxCell id="0F8t5wIPEfTGD16BmR4i-4" value="id integer" style="shape=partialRectangle;connectable=0;fillColor=none;top=0;left=0;bottom=0;right=0;align=left;spacingLeft=6;fontStyle=5;overflow=hidden;whiteSpace=wrap;html=1;labelBackgroundColor=none;strokeColor=#006658;fontColor=#5C5C5C;rounded=1;sketch=1;curveFitting=1;jiggle=2;" parent="0F8t5wIPEfTGD16BmR4i-2" vertex="1">
          <mxGeometry x="30" width="150" height="30" as="geometry">
            <mxRectangle width="150" height="30" as="alternateBounds" />
          </mxGeometry>
        </mxCell>
        <mxCell id="0F8t5wIPEfTGD16BmR4i-5" value="" style="shape=tableRow;horizontal=0;startSize=0;swimlaneHead=0;swimlaneBody=0;fillColor=none;collapsible=0;dropTarget=0;points=[[0,0.5],[1,0.5]];portConstraint=eastwest;top=0;left=0;right=0;bottom=0;labelBackgroundColor=none;strokeColor=#006658;fontColor=#5C5C5C;rounded=1;sketch=1;curveFitting=1;jiggle=2;" parent="0F8t5wIPEfTGD16BmR4i-1" vertex="1">
          <mxGeometry y="60" width="180" height="30" as="geometry" />
        </mxCell>
        <mxCell id="0F8t5wIPEfTGD16BmR4i-6" value="" style="shape=partialRectangle;connectable=0;fillColor=none;top=0;left=0;bottom=0;right=0;editable=1;overflow=hidden;whiteSpace=wrap;html=1;labelBackgroundColor=none;strokeColor=#006658;fontColor=#5C5C5C;rounded=1;sketch=1;curveFitting=1;jiggle=2;" parent="0F8t5wIPEfTGD16BmR4i-5" vertex="1">
          <mxGeometry width="30" height="30" as="geometry">
            <mxRectangle width="30" height="30" as="alternateBounds" />
          </mxGeometry>
        </mxCell>
        <mxCell id="0F8t5wIPEfTGD16BmR4i-7" value="nombre: string" style="shape=partialRectangle;connectable=0;fillColor=none;top=0;left=0;bottom=0;right=0;align=left;spacingLeft=6;overflow=hidden;whiteSpace=wrap;html=1;labelBackgroundColor=none;strokeColor=#006658;fontColor=#5C5C5C;rounded=1;sketch=1;curveFitting=1;jiggle=2;" parent="0F8t5wIPEfTGD16BmR4i-5" vertex="1">
          <mxGeometry x="30" width="150" height="30" as="geometry">
            <mxRectangle width="150" height="30" as="alternateBounds" />
          </mxGeometry>
        </mxCell>
        <mxCell id="0F8t5wIPEfTGD16BmR4i-14" value="Comuna" style="shape=table;startSize=30;container=1;collapsible=1;childLayout=tableLayout;fixedRows=1;rowLines=0;fontStyle=1;align=center;resizeLast=1;html=1;labelBackgroundColor=none;fillColor=#21C0A5;strokeColor=#006658;fontColor=#5C5C5C;rounded=1;sketch=1;curveFitting=1;jiggle=2;" parent="1" vertex="1">
          <mxGeometry x="1061" y="290" width="180" height="120" as="geometry" />
        </mxCell>
        <mxCell id="0F8t5wIPEfTGD16BmR4i-15" value="" style="shape=tableRow;horizontal=0;startSize=0;swimlaneHead=0;swimlaneBody=0;fillColor=none;collapsible=0;dropTarget=0;points=[[0,0.5],[1,0.5]];portConstraint=eastwest;top=0;left=0;right=0;bottom=1;labelBackgroundColor=none;strokeColor=#006658;fontColor=#5C5C5C;rounded=1;sketch=1;curveFitting=1;jiggle=2;" parent="0F8t5wIPEfTGD16BmR4i-14" vertex="1">
          <mxGeometry y="30" width="180" height="30" as="geometry" />
        </mxCell>
        <mxCell id="0F8t5wIPEfTGD16BmR4i-16" value="PK" style="shape=partialRectangle;connectable=0;fillColor=none;top=0;left=0;bottom=0;right=0;fontStyle=1;overflow=hidden;whiteSpace=wrap;html=1;labelBackgroundColor=none;strokeColor=#006658;fontColor=#5C5C5C;rounded=1;sketch=1;curveFitting=1;jiggle=2;" parent="0F8t5wIPEfTGD16BmR4i-15" vertex="1">
          <mxGeometry width="30" height="30" as="geometry">
            <mxRectangle width="30" height="30" as="alternateBounds" />
          </mxGeometry>
        </mxCell>
        <mxCell id="0F8t5wIPEfTGD16BmR4i-17" value="id integer" style="shape=partialRectangle;connectable=0;fillColor=none;top=0;left=0;bottom=0;right=0;align=left;spacingLeft=6;fontStyle=5;overflow=hidden;whiteSpace=wrap;html=1;labelBackgroundColor=none;strokeColor=#006658;fontColor=#5C5C5C;rounded=1;sketch=1;curveFitting=1;jiggle=2;" parent="0F8t5wIPEfTGD16BmR4i-15" vertex="1">
          <mxGeometry x="30" width="150" height="30" as="geometry">
            <mxRectangle width="150" height="30" as="alternateBounds" />
          </mxGeometry>
        </mxCell>
        <mxCell id="0F8t5wIPEfTGD16BmR4i-18" value="" style="shape=tableRow;horizontal=0;startSize=0;swimlaneHead=0;swimlaneBody=0;fillColor=none;collapsible=0;dropTarget=0;points=[[0,0.5],[1,0.5]];portConstraint=eastwest;top=0;left=0;right=0;bottom=0;labelBackgroundColor=none;strokeColor=#006658;fontColor=#5C5C5C;rounded=1;sketch=1;curveFitting=1;jiggle=2;" parent="0F8t5wIPEfTGD16BmR4i-14" vertex="1">
          <mxGeometry y="60" width="180" height="30" as="geometry" />
        </mxCell>
        <mxCell id="0F8t5wIPEfTGD16BmR4i-19" value="" style="shape=partialRectangle;connectable=0;fillColor=none;top=0;left=0;bottom=0;right=0;editable=1;overflow=hidden;whiteSpace=wrap;html=1;labelBackgroundColor=none;strokeColor=#006658;fontColor=#5C5C5C;rounded=1;sketch=1;curveFitting=1;jiggle=2;" parent="0F8t5wIPEfTGD16BmR4i-18" vertex="1">
          <mxGeometry width="30" height="30" as="geometry">
            <mxRectangle width="30" height="30" as="alternateBounds" />
          </mxGeometry>
        </mxCell>
        <mxCell id="0F8t5wIPEfTGD16BmR4i-20" value="nombre: string" style="shape=partialRectangle;connectable=0;fillColor=none;top=0;left=0;bottom=0;right=0;align=left;spacingLeft=6;overflow=hidden;whiteSpace=wrap;html=1;labelBackgroundColor=none;strokeColor=#006658;fontColor=#5C5C5C;rounded=1;sketch=1;curveFitting=1;jiggle=2;" parent="0F8t5wIPEfTGD16BmR4i-18" vertex="1">
          <mxGeometry x="30" width="150" height="30" as="geometry">
            <mxRectangle width="150" height="30" as="alternateBounds" />
          </mxGeometry>
        </mxCell>
        <mxCell id="0F8t5wIPEfTGD16BmR4i-21" value="" style="shape=tableRow;horizontal=0;startSize=0;swimlaneHead=0;swimlaneBody=0;fillColor=none;collapsible=0;dropTarget=0;points=[[0,0.5],[1,0.5]];portConstraint=eastwest;top=0;left=0;right=0;bottom=0;labelBackgroundColor=none;strokeColor=#006658;fontColor=#5C5C5C;rounded=1;sketch=1;curveFitting=1;jiggle=2;" parent="0F8t5wIPEfTGD16BmR4i-14" vertex="1">
          <mxGeometry y="90" width="180" height="30" as="geometry" />
        </mxCell>
        <mxCell id="0F8t5wIPEfTGD16BmR4i-22" value="FK" style="shape=partialRectangle;connectable=0;fillColor=none;top=0;left=0;bottom=0;right=0;editable=1;overflow=hidden;whiteSpace=wrap;html=1;labelBackgroundColor=none;strokeColor=#006658;fontColor=#5C5C5C;rounded=1;sketch=1;curveFitting=1;jiggle=2;" parent="0F8t5wIPEfTGD16BmR4i-21" vertex="1">
          <mxGeometry width="30" height="30" as="geometry">
            <mxRectangle width="30" height="30" as="alternateBounds" />
          </mxGeometry>
        </mxCell>
        <mxCell id="0F8t5wIPEfTGD16BmR4i-23" value="region_id: integer" style="shape=partialRectangle;connectable=0;fillColor=none;top=0;left=0;bottom=0;right=0;align=left;spacingLeft=6;overflow=hidden;whiteSpace=wrap;html=1;labelBackgroundColor=none;strokeColor=#006658;fontColor=#5C5C5C;rounded=1;sketch=1;curveFitting=1;jiggle=2;" parent="0F8t5wIPEfTGD16BmR4i-21" vertex="1">
          <mxGeometry x="30" width="150" height="30" as="geometry">
            <mxRectangle width="150" height="30" as="alternateBounds" />
          </mxGeometry>
        </mxCell>
        <mxCell id="0F8t5wIPEfTGD16BmR4i-27" value="" style="shape=tableRow;horizontal=0;startSize=0;swimlaneHead=0;swimlaneBody=0;fillColor=none;collapsible=0;dropTarget=0;points=[[0,0.5],[1,0.5]];portConstraint=eastwest;top=0;left=0;right=0;bottom=0;labelBackgroundColor=none;strokeColor=#006658;fontColor=#5C5C5C;rounded=1;sketch=1;curveFitting=1;jiggle=2;" parent="1" vertex="1">
          <mxGeometry x="1099" y="435" width="180" height="30" as="geometry" />
        </mxCell>
        <mxCell id="0F8t5wIPEfTGD16BmR4i-28" value="" style="shape=partialRectangle;connectable=0;fillColor=none;top=0;left=0;bottom=0;right=0;editable=1;overflow=hidden;whiteSpace=wrap;html=1;labelBackgroundColor=none;strokeColor=#006658;fontColor=#5C5C5C;rounded=1;sketch=1;curveFitting=1;jiggle=2;" parent="0F8t5wIPEfTGD16BmR4i-27" vertex="1">
          <mxGeometry width="30" height="30" as="geometry">
            <mxRectangle width="30" height="30" as="alternateBounds" />
          </mxGeometry>
        </mxCell>
        <mxCell id="i-Wt0OlWqes2DwWXPFK5-1" value="" style="fontSize=12;html=1;endArrow=ERoneToMany;rounded=1;entryX=0.5;entryY=0;entryDx=0;entryDy=0;edgeStyle=orthogonalEdgeStyle;exitX=1.01;exitY=0.113;exitDx=0;exitDy=0;exitPerimeter=0;labelBackgroundColor=none;strokeColor=#006658;fontColor=default;sketch=1;curveFitting=1;jiggle=2;" parent="1" edge="1" target="0F8t5wIPEfTGD16BmR4i-14" source="0F8t5wIPEfTGD16BmR4i-1">
          <mxGeometry width="100" height="100" relative="1" as="geometry">
            <mxPoint x="1188" y="375" as="sourcePoint" />
            <mxPoint x="1188" y="285" as="targetPoint" />
            <Array as="points">
              <mxPoint x="1290" y="140" />
              <mxPoint x="1290" y="255" />
              <mxPoint x="1151" y="255" />
            </Array>
          </mxGeometry>
        </mxCell>
        <mxCell id="i-Wt0OlWqes2DwWXPFK5-2" value="Usuario" style="shape=table;startSize=30;container=1;collapsible=1;childLayout=tableLayout;fixedRows=1;rowLines=0;fontStyle=1;align=center;resizeLast=1;html=1;labelBackgroundColor=none;fillColor=#21C0A5;strokeColor=#006658;fontColor=#5C5C5C;rounded=1;sketch=1;curveFitting=1;jiggle=2;" parent="1" vertex="1">
          <mxGeometry x="174" y="120" width="180" height="150" as="geometry" />
        </mxCell>
        <mxCell id="i-Wt0OlWqes2DwWXPFK5-3" value="" style="shape=tableRow;horizontal=0;startSize=0;swimlaneHead=0;swimlaneBody=0;fillColor=none;collapsible=0;dropTarget=0;points=[[0,0.5],[1,0.5]];portConstraint=eastwest;top=0;left=0;right=0;bottom=1;labelBackgroundColor=none;strokeColor=#006658;fontColor=#5C5C5C;rounded=1;sketch=1;curveFitting=1;jiggle=2;" parent="i-Wt0OlWqes2DwWXPFK5-2" vertex="1">
          <mxGeometry y="30" width="180" height="30" as="geometry" />
        </mxCell>
        <mxCell id="i-Wt0OlWqes2DwWXPFK5-4" value="PK" style="shape=partialRectangle;connectable=0;fillColor=none;top=0;left=0;bottom=0;right=0;fontStyle=1;overflow=hidden;whiteSpace=wrap;html=1;labelBackgroundColor=none;strokeColor=#006658;fontColor=#5C5C5C;rounded=1;sketch=1;curveFitting=1;jiggle=2;" parent="i-Wt0OlWqes2DwWXPFK5-3" vertex="1">
          <mxGeometry width="30" height="30" as="geometry">
            <mxRectangle width="30" height="30" as="alternateBounds" />
          </mxGeometry>
        </mxCell>
        <mxCell id="i-Wt0OlWqes2DwWXPFK5-5" value="id" style="shape=partialRectangle;connectable=0;fillColor=none;top=0;left=0;bottom=0;right=0;align=left;spacingLeft=6;fontStyle=5;overflow=hidden;whiteSpace=wrap;html=1;labelBackgroundColor=none;strokeColor=#006658;fontColor=#5C5C5C;rounded=1;sketch=1;curveFitting=1;jiggle=2;" parent="i-Wt0OlWqes2DwWXPFK5-3" vertex="1">
          <mxGeometry x="30" width="150" height="30" as="geometry">
            <mxRectangle width="150" height="30" as="alternateBounds" />
          </mxGeometry>
        </mxCell>
        <mxCell id="i-Wt0OlWqes2DwWXPFK5-6" value="" style="shape=tableRow;horizontal=0;startSize=0;swimlaneHead=0;swimlaneBody=0;fillColor=none;collapsible=0;dropTarget=0;points=[[0,0.5],[1,0.5]];portConstraint=eastwest;top=0;left=0;right=0;bottom=0;labelBackgroundColor=none;strokeColor=#006658;fontColor=#5C5C5C;rounded=1;sketch=1;curveFitting=1;jiggle=2;" parent="i-Wt0OlWqes2DwWXPFK5-2" vertex="1">
          <mxGeometry y="60" width="180" height="30" as="geometry" />
        </mxCell>
        <mxCell id="i-Wt0OlWqes2DwWXPFK5-7" value="" style="shape=partialRectangle;connectable=0;fillColor=none;top=0;left=0;bottom=0;right=0;editable=1;overflow=hidden;whiteSpace=wrap;html=1;labelBackgroundColor=none;strokeColor=#006658;fontColor=#5C5C5C;rounded=1;sketch=1;curveFitting=1;jiggle=2;" parent="i-Wt0OlWqes2DwWXPFK5-6" vertex="1">
          <mxGeometry width="30" height="30" as="geometry">
            <mxRectangle width="30" height="30" as="alternateBounds" />
          </mxGeometry>
        </mxCell>
        <mxCell id="i-Wt0OlWqes2DwWXPFK5-8" value="nombre" style="shape=partialRectangle;connectable=0;fillColor=none;top=0;left=0;bottom=0;right=0;align=left;spacingLeft=6;overflow=hidden;whiteSpace=wrap;html=1;labelBackgroundColor=none;strokeColor=#006658;fontColor=#5C5C5C;rounded=1;sketch=1;curveFitting=1;jiggle=2;" parent="i-Wt0OlWqes2DwWXPFK5-6" vertex="1">
          <mxGeometry x="30" width="150" height="30" as="geometry">
            <mxRectangle width="150" height="30" as="alternateBounds" />
          </mxGeometry>
        </mxCell>
        <mxCell id="i-Wt0OlWqes2DwWXPFK5-9" value="" style="shape=tableRow;horizontal=0;startSize=0;swimlaneHead=0;swimlaneBody=0;fillColor=none;collapsible=0;dropTarget=0;points=[[0,0.5],[1,0.5]];portConstraint=eastwest;top=0;left=0;right=0;bottom=0;labelBackgroundColor=none;strokeColor=#006658;fontColor=#5C5C5C;rounded=1;sketch=1;curveFitting=1;jiggle=2;" parent="i-Wt0OlWqes2DwWXPFK5-2" vertex="1">
          <mxGeometry y="90" width="180" height="30" as="geometry" />
        </mxCell>
        <mxCell id="i-Wt0OlWqes2DwWXPFK5-10" value="" style="shape=partialRectangle;connectable=0;fillColor=none;top=0;left=0;bottom=0;right=0;editable=1;overflow=hidden;whiteSpace=wrap;html=1;labelBackgroundColor=none;strokeColor=#006658;fontColor=#5C5C5C;rounded=1;sketch=1;curveFitting=1;jiggle=2;" parent="i-Wt0OlWqes2DwWXPFK5-9" vertex="1">
          <mxGeometry width="30" height="30" as="geometry">
            <mxRectangle width="30" height="30" as="alternateBounds" />
          </mxGeometry>
        </mxCell>
        <mxCell id="i-Wt0OlWqes2DwWXPFK5-11" value="apellido" style="shape=partialRectangle;connectable=0;fillColor=none;top=0;left=0;bottom=0;right=0;align=left;spacingLeft=6;overflow=hidden;whiteSpace=wrap;html=1;labelBackgroundColor=none;strokeColor=#006658;fontColor=#5C5C5C;rounded=1;sketch=1;curveFitting=1;jiggle=2;" parent="i-Wt0OlWqes2DwWXPFK5-9" vertex="1">
          <mxGeometry x="30" width="150" height="30" as="geometry">
            <mxRectangle width="150" height="30" as="alternateBounds" />
          </mxGeometry>
        </mxCell>
        <mxCell id="i-Wt0OlWqes2DwWXPFK5-12" value="" style="shape=tableRow;horizontal=0;startSize=0;swimlaneHead=0;swimlaneBody=0;fillColor=none;collapsible=0;dropTarget=0;points=[[0,0.5],[1,0.5]];portConstraint=eastwest;top=0;left=0;right=0;bottom=0;labelBackgroundColor=none;strokeColor=#006658;fontColor=#5C5C5C;rounded=1;sketch=1;curveFitting=1;jiggle=2;" parent="i-Wt0OlWqes2DwWXPFK5-2" vertex="1">
          <mxGeometry y="120" width="180" height="30" as="geometry" />
        </mxCell>
        <mxCell id="i-Wt0OlWqes2DwWXPFK5-13" value="FK" style="shape=partialRectangle;connectable=0;fillColor=none;top=0;left=0;bottom=0;right=0;editable=1;overflow=hidden;whiteSpace=wrap;html=1;labelBackgroundColor=none;strokeColor=#006658;fontColor=#5C5C5C;rounded=1;sketch=1;curveFitting=1;jiggle=2;" parent="i-Wt0OlWqes2DwWXPFK5-12" vertex="1">
          <mxGeometry width="30" height="30" as="geometry">
            <mxRectangle width="30" height="30" as="alternateBounds" />
          </mxGeometry>
        </mxCell>
        <mxCell id="i-Wt0OlWqes2DwWXPFK5-14" value="tipo_usuario_id" style="shape=partialRectangle;connectable=0;fillColor=none;top=0;left=0;bottom=0;right=0;align=left;spacingLeft=6;overflow=hidden;whiteSpace=wrap;html=1;labelBackgroundColor=none;strokeColor=#006658;fontColor=#5C5C5C;rounded=1;sketch=1;curveFitting=1;jiggle=2;" parent="i-Wt0OlWqes2DwWXPFK5-12" vertex="1">
          <mxGeometry x="30" width="150" height="30" as="geometry">
            <mxRectangle width="150" height="30" as="alternateBounds" />
          </mxGeometry>
        </mxCell>
        <mxCell id="i-Wt0OlWqes2DwWXPFK5-21" value="tipo_usuario" style="shape=table;startSize=30;container=1;collapsible=1;childLayout=tableLayout;fixedRows=1;rowLines=0;fontStyle=1;align=center;resizeLast=1;html=1;labelBackgroundColor=none;fillColor=#21C0A5;strokeColor=#006658;fontColor=#5C5C5C;rounded=1;sketch=1;curveFitting=1;jiggle=2;" parent="1" vertex="1">
          <mxGeometry x="174" y="350" width="180" height="90" as="geometry" />
        </mxCell>
        <mxCell id="i-Wt0OlWqes2DwWXPFK5-22" value="" style="shape=tableRow;horizontal=0;startSize=0;swimlaneHead=0;swimlaneBody=0;fillColor=none;collapsible=0;dropTarget=0;points=[[0,0.5],[1,0.5]];portConstraint=eastwest;top=0;left=0;right=0;bottom=1;labelBackgroundColor=none;strokeColor=#006658;fontColor=#5C5C5C;rounded=1;sketch=1;curveFitting=1;jiggle=2;" parent="i-Wt0OlWqes2DwWXPFK5-21" vertex="1">
          <mxGeometry y="30" width="180" height="30" as="geometry" />
        </mxCell>
        <mxCell id="i-Wt0OlWqes2DwWXPFK5-23" value="PK" style="shape=partialRectangle;connectable=0;fillColor=none;top=0;left=0;bottom=0;right=0;fontStyle=1;overflow=hidden;whiteSpace=wrap;html=1;labelBackgroundColor=none;strokeColor=#006658;fontColor=#5C5C5C;rounded=1;sketch=1;curveFitting=1;jiggle=2;" parent="i-Wt0OlWqes2DwWXPFK5-22" vertex="1">
          <mxGeometry width="30" height="30" as="geometry">
            <mxRectangle width="30" height="30" as="alternateBounds" />
          </mxGeometry>
        </mxCell>
        <mxCell id="i-Wt0OlWqes2DwWXPFK5-24" value="ID" style="shape=partialRectangle;connectable=0;fillColor=none;top=0;left=0;bottom=0;right=0;align=left;spacingLeft=6;fontStyle=5;overflow=hidden;whiteSpace=wrap;html=1;labelBackgroundColor=none;strokeColor=#006658;fontColor=#5C5C5C;rounded=1;sketch=1;curveFitting=1;jiggle=2;" parent="i-Wt0OlWqes2DwWXPFK5-22" vertex="1">
          <mxGeometry x="30" width="150" height="30" as="geometry">
            <mxRectangle width="150" height="30" as="alternateBounds" />
          </mxGeometry>
        </mxCell>
        <mxCell id="i-Wt0OlWqes2DwWXPFK5-25" value="" style="shape=tableRow;horizontal=0;startSize=0;swimlaneHead=0;swimlaneBody=0;fillColor=none;collapsible=0;dropTarget=0;points=[[0,0.5],[1,0.5]];portConstraint=eastwest;top=0;left=0;right=0;bottom=0;labelBackgroundColor=none;strokeColor=#006658;fontColor=#5C5C5C;rounded=1;sketch=1;curveFitting=1;jiggle=2;" parent="i-Wt0OlWqes2DwWXPFK5-21" vertex="1">
          <mxGeometry y="60" width="180" height="30" as="geometry" />
        </mxCell>
        <mxCell id="i-Wt0OlWqes2DwWXPFK5-26" value="" style="shape=partialRectangle;connectable=0;fillColor=none;top=0;left=0;bottom=0;right=0;editable=1;overflow=hidden;whiteSpace=wrap;html=1;labelBackgroundColor=none;strokeColor=#006658;fontColor=#5C5C5C;rounded=1;sketch=1;curveFitting=1;jiggle=2;" parent="i-Wt0OlWqes2DwWXPFK5-25" vertex="1">
          <mxGeometry width="30" height="30" as="geometry">
            <mxRectangle width="30" height="30" as="alternateBounds" />
          </mxGeometry>
        </mxCell>
        <mxCell id="i-Wt0OlWqes2DwWXPFK5-27" value="nombre" style="shape=partialRectangle;connectable=0;fillColor=none;top=0;left=0;bottom=0;right=0;align=left;spacingLeft=6;overflow=hidden;whiteSpace=wrap;html=1;labelBackgroundColor=none;strokeColor=#006658;fontColor=#5C5C5C;rounded=1;sketch=1;curveFitting=1;jiggle=2;" parent="i-Wt0OlWqes2DwWXPFK5-25" vertex="1">
          <mxGeometry x="30" width="150" height="30" as="geometry">
            <mxRectangle width="150" height="30" as="alternateBounds" />
          </mxGeometry>
        </mxCell>
        <mxCell id="i-Wt0OlWqes2DwWXPFK5-34" value="" style="fontSize=12;html=1;endArrow=ERoneToMany;rounded=1;exitX=0;exitY=0.667;exitDx=0;exitDy=0;elbow=vertical;exitPerimeter=0;labelBackgroundColor=none;strokeColor=#006658;fontColor=default;sketch=1;curveFitting=1;jiggle=2;" parent="1" source="i-Wt0OlWqes2DwWXPFK5-22" edge="1" target="i-Wt0OlWqes2DwWXPFK5-12">
          <mxGeometry width="100" height="100" relative="1" as="geometry">
            <mxPoint x="114" y="400" as="sourcePoint" />
            <mxPoint x="174" y="210" as="targetPoint" />
            <Array as="points">
              <mxPoint x="94" y="380" />
              <mxPoint x="94" y="260" />
            </Array>
          </mxGeometry>
        </mxCell>
        <mxCell id="i-Wt0OlWqes2DwWXPFK5-35" value="" style="fontSize=12;html=1;endArrow=ERoneToMany;rounded=1;exitX=0.304;exitY=0;exitDx=0;exitDy=0;exitPerimeter=0;labelBackgroundColor=none;strokeColor=#006658;fontColor=default;sketch=1;curveFitting=1;jiggle=2;" parent="1" source="i-Wt0OlWqes2DwWXPFK5-2" edge="1" target="i-Wt0OlWqes2DwWXPFK5-45">
          <mxGeometry width="100" height="100" relative="1" as="geometry">
            <mxPoint x="196.01999999999998" y="80.00000000000009" as="sourcePoint" />
            <mxPoint x="320" y="-50" as="targetPoint" />
            <Array as="points">
              <mxPoint x="230" y="-45" />
            </Array>
          </mxGeometry>
        </mxCell>
        <mxCell id="i-Wt0OlWqes2DwWXPFK5-39" value="" style="fontSize=12;html=1;endArrow=ERoneToMany;rounded=1;exitX=-0.013;exitY=0.192;exitDx=0;exitDy=0;exitPerimeter=0;entryX=1;entryY=0.5;entryDx=0;entryDy=0;labelBackgroundColor=none;strokeColor=#006658;fontColor=default;sketch=1;curveFitting=1;jiggle=2;" parent="1" source="0F8t5wIPEfTGD16BmR4i-14" edge="1" target="uAvPhxqbVSPk3TDM8ARv-41">
          <mxGeometry width="100" height="100" relative="1" as="geometry">
            <mxPoint x="880" y="260" as="sourcePoint" />
            <mxPoint x="815" y="120" as="targetPoint" />
          </mxGeometry>
        </mxCell>
        <mxCell id="i-Wt0OlWqes2DwWXPFK5-40" value="" style="fontSize=12;html=1;endArrow=ERoneToMany;rounded=1;exitX=0;exitY=0.5;exitDx=0;exitDy=0;entryX=1;entryY=0.5;entryDx=0;entryDy=0;entryPerimeter=0;labelBackgroundColor=none;strokeColor=#006658;fontColor=default;sketch=1;curveFitting=1;jiggle=2;" parent="1" source="0F8t5wIPEfTGD16BmR4i-5" edge="1" target="uAvPhxqbVSPk3TDM8ARv-38">
          <mxGeometry width="100" height="100" relative="1" as="geometry">
            <mxPoint x="1090" y="99.5" as="sourcePoint" />
            <mxPoint x="880" y="460" as="targetPoint" />
          </mxGeometry>
        </mxCell>
        <mxCell id="i-Wt0OlWqes2DwWXPFK5-41" value="inmueble_usuario" style="shape=table;startSize=30;container=1;collapsible=1;childLayout=tableLayout;fixedRows=1;rowLines=0;fontStyle=1;align=center;resizeLast=1;html=1;labelBackgroundColor=none;fillColor=#21C0A5;strokeColor=#006658;fontColor=#5C5C5C;rounded=1;sketch=1;curveFitting=1;jiggle=2;" parent="1" vertex="1">
          <mxGeometry x="324" y="-120" width="180" height="120" as="geometry" />
        </mxCell>
        <mxCell id="i-Wt0OlWqes2DwWXPFK5-42" value="" style="shape=tableRow;horizontal=0;startSize=0;swimlaneHead=0;swimlaneBody=0;fillColor=none;collapsible=0;dropTarget=0;points=[[0,0.5],[1,0.5]];portConstraint=eastwest;top=0;left=0;right=0;bottom=1;labelBackgroundColor=none;strokeColor=#006658;fontColor=#5C5C5C;rounded=1;sketch=1;curveFitting=1;jiggle=2;" parent="i-Wt0OlWqes2DwWXPFK5-41" vertex="1">
          <mxGeometry y="30" width="180" height="30" as="geometry" />
        </mxCell>
        <mxCell id="i-Wt0OlWqes2DwWXPFK5-43" value="PK" style="shape=partialRectangle;connectable=0;fillColor=none;top=0;left=0;bottom=0;right=0;fontStyle=1;overflow=hidden;whiteSpace=wrap;html=1;labelBackgroundColor=none;strokeColor=#006658;fontColor=#5C5C5C;rounded=1;sketch=1;curveFitting=1;jiggle=2;" parent="i-Wt0OlWqes2DwWXPFK5-42" vertex="1">
          <mxGeometry width="30" height="30" as="geometry">
            <mxRectangle width="30" height="30" as="alternateBounds" />
          </mxGeometry>
        </mxCell>
        <mxCell id="i-Wt0OlWqes2DwWXPFK5-44" value="id" style="shape=partialRectangle;connectable=0;fillColor=none;top=0;left=0;bottom=0;right=0;align=left;spacingLeft=6;fontStyle=5;overflow=hidden;whiteSpace=wrap;html=1;labelBackgroundColor=none;strokeColor=#006658;fontColor=#5C5C5C;rounded=1;sketch=1;curveFitting=1;jiggle=2;" parent="i-Wt0OlWqes2DwWXPFK5-42" vertex="1">
          <mxGeometry x="30" width="150" height="30" as="geometry">
            <mxRectangle width="150" height="30" as="alternateBounds" />
          </mxGeometry>
        </mxCell>
        <mxCell id="i-Wt0OlWqes2DwWXPFK5-45" value="" style="shape=tableRow;horizontal=0;startSize=0;swimlaneHead=0;swimlaneBody=0;fillColor=none;collapsible=0;dropTarget=0;points=[[0,0.5],[1,0.5]];portConstraint=eastwest;top=0;left=0;right=0;bottom=0;labelBackgroundColor=none;strokeColor=#006658;fontColor=#5C5C5C;rounded=1;sketch=1;curveFitting=1;jiggle=2;" parent="i-Wt0OlWqes2DwWXPFK5-41" vertex="1">
          <mxGeometry y="60" width="180" height="30" as="geometry" />
        </mxCell>
        <mxCell id="i-Wt0OlWqes2DwWXPFK5-46" value="FK" style="shape=partialRectangle;connectable=0;fillColor=none;top=0;left=0;bottom=0;right=0;editable=1;overflow=hidden;whiteSpace=wrap;html=1;labelBackgroundColor=none;strokeColor=#006658;fontColor=#5C5C5C;rounded=1;sketch=1;curveFitting=1;jiggle=2;" parent="i-Wt0OlWqes2DwWXPFK5-45" vertex="1">
          <mxGeometry width="30" height="30" as="geometry">
            <mxRectangle width="30" height="30" as="alternateBounds" />
          </mxGeometry>
        </mxCell>
        <mxCell id="i-Wt0OlWqes2DwWXPFK5-47" value="usuario_id" style="shape=partialRectangle;connectable=0;fillColor=none;top=0;left=0;bottom=0;right=0;align=left;spacingLeft=6;overflow=hidden;whiteSpace=wrap;html=1;labelBackgroundColor=none;strokeColor=#006658;fontColor=#5C5C5C;rounded=1;sketch=1;curveFitting=1;jiggle=2;" parent="i-Wt0OlWqes2DwWXPFK5-45" vertex="1">
          <mxGeometry x="30" width="150" height="30" as="geometry">
            <mxRectangle width="150" height="30" as="alternateBounds" />
          </mxGeometry>
        </mxCell>
        <mxCell id="i-Wt0OlWqes2DwWXPFK5-48" value="" style="shape=tableRow;horizontal=0;startSize=0;swimlaneHead=0;swimlaneBody=0;fillColor=none;collapsible=0;dropTarget=0;points=[[0,0.5],[1,0.5]];portConstraint=eastwest;top=0;left=0;right=0;bottom=0;labelBackgroundColor=none;strokeColor=#006658;fontColor=#5C5C5C;rounded=1;sketch=1;curveFitting=1;jiggle=2;" parent="i-Wt0OlWqes2DwWXPFK5-41" vertex="1">
          <mxGeometry y="90" width="180" height="30" as="geometry" />
        </mxCell>
        <mxCell id="i-Wt0OlWqes2DwWXPFK5-49" value="FK" style="shape=partialRectangle;connectable=0;fillColor=none;top=0;left=0;bottom=0;right=0;editable=1;overflow=hidden;whiteSpace=wrap;html=1;labelBackgroundColor=none;strokeColor=#006658;fontColor=#5C5C5C;rounded=1;sketch=1;curveFitting=1;jiggle=2;" parent="i-Wt0OlWqes2DwWXPFK5-48" vertex="1">
          <mxGeometry width="30" height="30" as="geometry">
            <mxRectangle width="30" height="30" as="alternateBounds" />
          </mxGeometry>
        </mxCell>
        <mxCell id="i-Wt0OlWqes2DwWXPFK5-50" value="inmueble_id" style="shape=partialRectangle;connectable=0;fillColor=none;top=0;left=0;bottom=0;right=0;align=left;spacingLeft=6;overflow=hidden;whiteSpace=wrap;html=1;labelBackgroundColor=none;strokeColor=#006658;fontColor=#5C5C5C;rounded=1;sketch=1;curveFitting=1;jiggle=2;" parent="i-Wt0OlWqes2DwWXPFK5-48" vertex="1">
          <mxGeometry x="30" width="150" height="30" as="geometry">
            <mxRectangle width="150" height="30" as="alternateBounds" />
          </mxGeometry>
        </mxCell>
        <mxCell id="i-Wt0OlWqes2DwWXPFK5-54" value="" style="edgeStyle=orthogonalEdgeStyle;fontSize=12;html=1;endArrow=ERoneToMany;rounded=1;exitX=0.579;exitY=0.003;exitDx=0;exitDy=0;exitPerimeter=0;labelBackgroundColor=none;strokeColor=#006658;fontColor=default;sketch=1;curveFitting=1;jiggle=2;" parent="1" source="uAvPhxqbVSPk3TDM8ARv-1" target="i-Wt0OlWqes2DwWXPFK5-48" edge="1">
          <mxGeometry width="100" height="100" relative="1" as="geometry">
            <mxPoint x="670" y="60" as="sourcePoint" />
            <mxPoint x="640" y="-110.25" as="targetPoint" />
          </mxGeometry>
        </mxCell>
        <mxCell id="i-Wt0OlWqes2DwWXPFK5-58" value="tipo_inmueble" style="shape=table;startSize=30;container=1;collapsible=1;childLayout=tableLayout;fixedRows=1;rowLines=0;fontStyle=1;align=center;resizeLast=1;html=1;labelBackgroundColor=none;fillColor=#21C0A5;strokeColor=#006658;fontColor=#5C5C5C;rounded=1;sketch=1;curveFitting=1;jiggle=2;" parent="1" vertex="1">
          <mxGeometry x="1061" y="455" width="180" height="90" as="geometry" />
        </mxCell>
        <mxCell id="i-Wt0OlWqes2DwWXPFK5-59" value="" style="shape=tableRow;horizontal=0;startSize=0;swimlaneHead=0;swimlaneBody=0;fillColor=none;collapsible=0;dropTarget=0;points=[[0,0.5],[1,0.5]];portConstraint=eastwest;top=0;left=0;right=0;bottom=1;labelBackgroundColor=none;strokeColor=#006658;fontColor=#5C5C5C;rounded=1;sketch=1;curveFitting=1;jiggle=2;" parent="i-Wt0OlWqes2DwWXPFK5-58" vertex="1">
          <mxGeometry y="30" width="180" height="30" as="geometry" />
        </mxCell>
        <mxCell id="i-Wt0OlWqes2DwWXPFK5-60" value="PK" style="shape=partialRectangle;connectable=0;fillColor=none;top=0;left=0;bottom=0;right=0;fontStyle=1;overflow=hidden;whiteSpace=wrap;html=1;labelBackgroundColor=none;strokeColor=#006658;fontColor=#5C5C5C;rounded=1;sketch=1;curveFitting=1;jiggle=2;" parent="i-Wt0OlWqes2DwWXPFK5-59" vertex="1">
          <mxGeometry width="30" height="30" as="geometry">
            <mxRectangle width="30" height="30" as="alternateBounds" />
          </mxGeometry>
        </mxCell>
        <mxCell id="i-Wt0OlWqes2DwWXPFK5-61" value="id" style="shape=partialRectangle;connectable=0;fillColor=none;top=0;left=0;bottom=0;right=0;align=left;spacingLeft=6;fontStyle=5;overflow=hidden;whiteSpace=wrap;html=1;labelBackgroundColor=none;strokeColor=#006658;fontColor=#5C5C5C;rounded=1;sketch=1;curveFitting=1;jiggle=2;" parent="i-Wt0OlWqes2DwWXPFK5-59" vertex="1">
          <mxGeometry x="30" width="150" height="30" as="geometry">
            <mxRectangle width="150" height="30" as="alternateBounds" />
          </mxGeometry>
        </mxCell>
        <mxCell id="i-Wt0OlWqes2DwWXPFK5-62" value="" style="shape=tableRow;horizontal=0;startSize=0;swimlaneHead=0;swimlaneBody=0;fillColor=none;collapsible=0;dropTarget=0;points=[[0,0.5],[1,0.5]];portConstraint=eastwest;top=0;left=0;right=0;bottom=0;labelBackgroundColor=none;strokeColor=#006658;fontColor=#5C5C5C;rounded=1;sketch=1;curveFitting=1;jiggle=2;" parent="i-Wt0OlWqes2DwWXPFK5-58" vertex="1">
          <mxGeometry y="60" width="180" height="30" as="geometry" />
        </mxCell>
        <mxCell id="i-Wt0OlWqes2DwWXPFK5-63" value="" style="shape=partialRectangle;connectable=0;fillColor=none;top=0;left=0;bottom=0;right=0;editable=1;overflow=hidden;whiteSpace=wrap;html=1;labelBackgroundColor=none;strokeColor=#006658;fontColor=#5C5C5C;rounded=1;sketch=1;curveFitting=1;jiggle=2;" parent="i-Wt0OlWqes2DwWXPFK5-62" vertex="1">
          <mxGeometry width="30" height="30" as="geometry">
            <mxRectangle width="30" height="30" as="alternateBounds" />
          </mxGeometry>
        </mxCell>
        <mxCell id="i-Wt0OlWqes2DwWXPFK5-64" value="nombre" style="shape=partialRectangle;connectable=0;fillColor=none;top=0;left=0;bottom=0;right=0;align=left;spacingLeft=6;overflow=hidden;whiteSpace=wrap;html=1;labelBackgroundColor=none;strokeColor=#006658;fontColor=#5C5C5C;rounded=1;sketch=1;curveFitting=1;jiggle=2;" parent="i-Wt0OlWqes2DwWXPFK5-62" vertex="1">
          <mxGeometry x="30" width="150" height="30" as="geometry">
            <mxRectangle width="150" height="30" as="alternateBounds" />
          </mxGeometry>
        </mxCell>
        <mxCell id="i-Wt0OlWqes2DwWXPFK5-71" value="" style="fontSize=12;html=1;endArrow=ERoneToMany;rounded=1;exitX=-0.016;exitY=0.164;exitDx=0;exitDy=0;exitPerimeter=0;entryX=1;entryY=0.5;entryDx=0;entryDy=0;labelBackgroundColor=none;strokeColor=#006658;fontColor=default;sketch=1;curveFitting=1;jiggle=2;" parent="1" edge="1" target="uAvPhxqbVSPk3TDM8ARv-44" source="i-Wt0OlWqes2DwWXPFK5-58">
          <mxGeometry width="100" height="100" relative="1" as="geometry">
            <mxPoint x="990" y="445" as="sourcePoint" />
            <mxPoint x="810" y="520" as="targetPoint" />
          </mxGeometry>
        </mxCell>
        <mxCell id="uAvPhxqbVSPk3TDM8ARv-1" value="Inmueble" style="shape=table;startSize=30;container=1;collapsible=1;childLayout=tableLayout;fixedRows=1;rowLines=0;fontStyle=1;align=center;resizeLast=1;html=1;labelBackgroundColor=none;fillColor=#21C0A5;strokeColor=#006658;fontColor=#5C5C5C;rounded=1;sketch=1;curveFitting=1;jiggle=2;" vertex="1" parent="1">
          <mxGeometry x="460" y="65" width="350" height="480" as="geometry" />
        </mxCell>
        <mxCell id="uAvPhxqbVSPk3TDM8ARv-2" value="" style="shape=tableRow;horizontal=0;startSize=0;swimlaneHead=0;swimlaneBody=0;fillColor=none;collapsible=0;dropTarget=0;points=[[0,0.5],[1,0.5]];portConstraint=eastwest;top=0;left=0;right=0;bottom=1;labelBackgroundColor=none;strokeColor=#006658;fontColor=#5C5C5C;rounded=1;sketch=1;curveFitting=1;jiggle=2;" vertex="1" parent="uAvPhxqbVSPk3TDM8ARv-1">
          <mxGeometry y="30" width="350" height="30" as="geometry" />
        </mxCell>
        <mxCell id="uAvPhxqbVSPk3TDM8ARv-3" value="PK" style="shape=partialRectangle;connectable=0;fillColor=none;top=0;left=0;bottom=0;right=0;fontStyle=1;overflow=hidden;whiteSpace=wrap;html=1;labelBackgroundColor=none;strokeColor=#006658;fontColor=#5C5C5C;rounded=1;sketch=1;curveFitting=1;jiggle=2;" vertex="1" parent="uAvPhxqbVSPk3TDM8ARv-2">
          <mxGeometry width="30" height="30" as="geometry">
            <mxRectangle width="30" height="30" as="alternateBounds" />
          </mxGeometry>
        </mxCell>
        <mxCell id="uAvPhxqbVSPk3TDM8ARv-4" value="id integer" style="shape=partialRectangle;connectable=0;fillColor=none;top=0;left=0;bottom=0;right=0;align=left;spacingLeft=6;fontStyle=5;overflow=hidden;whiteSpace=wrap;html=1;labelBackgroundColor=none;strokeColor=#006658;fontColor=#5C5C5C;rounded=1;sketch=1;curveFitting=1;jiggle=2;" vertex="1" parent="uAvPhxqbVSPk3TDM8ARv-2">
          <mxGeometry x="30" width="320" height="30" as="geometry">
            <mxRectangle width="320" height="30" as="alternateBounds" />
          </mxGeometry>
        </mxCell>
        <mxCell id="uAvPhxqbVSPk3TDM8ARv-5" value="" style="shape=tableRow;horizontal=0;startSize=0;swimlaneHead=0;swimlaneBody=0;fillColor=none;collapsible=0;dropTarget=0;points=[[0,0.5],[1,0.5]];portConstraint=eastwest;top=0;left=0;right=0;bottom=0;labelBackgroundColor=none;strokeColor=#006658;fontColor=#5C5C5C;rounded=1;sketch=1;curveFitting=1;jiggle=2;" vertex="1" parent="uAvPhxqbVSPk3TDM8ARv-1">
          <mxGeometry y="60" width="350" height="30" as="geometry" />
        </mxCell>
        <mxCell id="uAvPhxqbVSPk3TDM8ARv-6" value="" style="shape=partialRectangle;connectable=0;fillColor=none;top=0;left=0;bottom=0;right=0;editable=1;overflow=hidden;whiteSpace=wrap;html=1;labelBackgroundColor=none;strokeColor=#006658;fontColor=#5C5C5C;rounded=1;sketch=1;curveFitting=1;jiggle=2;" vertex="1" parent="uAvPhxqbVSPk3TDM8ARv-5">
          <mxGeometry width="30" height="30" as="geometry">
            <mxRectangle width="30" height="30" as="alternateBounds" />
          </mxGeometry>
        </mxCell>
        <mxCell id="uAvPhxqbVSPk3TDM8ARv-7" value="nombre: string" style="shape=partialRectangle;connectable=0;fillColor=none;top=0;left=0;bottom=0;right=0;align=left;spacingLeft=6;overflow=hidden;whiteSpace=wrap;html=1;labelBackgroundColor=none;strokeColor=#006658;fontColor=#5C5C5C;rounded=1;sketch=1;curveFitting=1;jiggle=2;" vertex="1" parent="uAvPhxqbVSPk3TDM8ARv-5">
          <mxGeometry x="30" width="320" height="30" as="geometry">
            <mxRectangle width="320" height="30" as="alternateBounds" />
          </mxGeometry>
        </mxCell>
        <mxCell id="uAvPhxqbVSPk3TDM8ARv-8" value="" style="shape=tableRow;horizontal=0;startSize=0;swimlaneHead=0;swimlaneBody=0;fillColor=none;collapsible=0;dropTarget=0;points=[[0,0.5],[1,0.5]];portConstraint=eastwest;top=0;left=0;right=0;bottom=0;labelBackgroundColor=none;strokeColor=#006658;fontColor=#5C5C5C;rounded=1;sketch=1;curveFitting=1;jiggle=2;" vertex="1" parent="uAvPhxqbVSPk3TDM8ARv-1">
          <mxGeometry y="90" width="350" height="30" as="geometry" />
        </mxCell>
        <mxCell id="uAvPhxqbVSPk3TDM8ARv-9" value="" style="shape=partialRectangle;connectable=0;fillColor=none;top=0;left=0;bottom=0;right=0;editable=1;overflow=hidden;whiteSpace=wrap;html=1;labelBackgroundColor=none;strokeColor=#006658;fontColor=#5C5C5C;rounded=1;sketch=1;curveFitting=1;jiggle=2;" vertex="1" parent="uAvPhxqbVSPk3TDM8ARv-8">
          <mxGeometry width="30" height="30" as="geometry">
            <mxRectangle width="30" height="30" as="alternateBounds" />
          </mxGeometry>
        </mxCell>
        <mxCell id="uAvPhxqbVSPk3TDM8ARv-10" value="descripcion: string" style="shape=partialRectangle;connectable=0;fillColor=none;top=0;left=0;bottom=0;right=0;align=left;spacingLeft=6;overflow=hidden;whiteSpace=wrap;html=1;labelBackgroundColor=none;strokeColor=#006658;fontColor=#5C5C5C;rounded=1;sketch=1;curveFitting=1;jiggle=2;" vertex="1" parent="uAvPhxqbVSPk3TDM8ARv-8">
          <mxGeometry x="30" width="320" height="30" as="geometry">
            <mxRectangle width="320" height="30" as="alternateBounds" />
          </mxGeometry>
        </mxCell>
        <mxCell id="uAvPhxqbVSPk3TDM8ARv-11" value="" style="shape=tableRow;horizontal=0;startSize=0;swimlaneHead=0;swimlaneBody=0;fillColor=none;collapsible=0;dropTarget=0;points=[[0,0.5],[1,0.5]];portConstraint=eastwest;top=0;left=0;right=0;bottom=0;labelBackgroundColor=none;strokeColor=#006658;fontColor=#5C5C5C;rounded=1;sketch=1;curveFitting=1;jiggle=2;" vertex="1" parent="uAvPhxqbVSPk3TDM8ARv-1">
          <mxGeometry y="120" width="350" height="30" as="geometry" />
        </mxCell>
        <mxCell id="uAvPhxqbVSPk3TDM8ARv-12" value="" style="shape=partialRectangle;connectable=0;fillColor=none;top=0;left=0;bottom=0;right=0;editable=1;overflow=hidden;whiteSpace=wrap;html=1;labelBackgroundColor=none;strokeColor=#006658;fontColor=#5C5C5C;rounded=1;sketch=1;curveFitting=1;jiggle=2;" vertex="1" parent="uAvPhxqbVSPk3TDM8ARv-11">
          <mxGeometry width="30" height="30" as="geometry">
            <mxRectangle width="30" height="30" as="alternateBounds" />
          </mxGeometry>
        </mxCell>
        <mxCell id="uAvPhxqbVSPk3TDM8ARv-13" value="m2_construdos: float" style="shape=partialRectangle;connectable=0;fillColor=none;top=0;left=0;bottom=0;right=0;align=left;spacingLeft=6;overflow=hidden;whiteSpace=wrap;html=1;labelBackgroundColor=none;strokeColor=#006658;fontColor=#5C5C5C;rounded=1;sketch=1;curveFitting=1;jiggle=2;" vertex="1" parent="uAvPhxqbVSPk3TDM8ARv-11">
          <mxGeometry x="30" width="320" height="30" as="geometry">
            <mxRectangle width="320" height="30" as="alternateBounds" />
          </mxGeometry>
        </mxCell>
        <mxCell id="uAvPhxqbVSPk3TDM8ARv-14" value="" style="shape=tableRow;horizontal=0;startSize=0;swimlaneHead=0;swimlaneBody=0;fillColor=none;collapsible=0;dropTarget=0;points=[[0,0.5],[1,0.5]];portConstraint=eastwest;top=0;left=0;right=0;bottom=0;labelBackgroundColor=none;strokeColor=#006658;fontColor=#5C5C5C;rounded=1;sketch=1;curveFitting=1;jiggle=2;" vertex="1" parent="uAvPhxqbVSPk3TDM8ARv-1">
          <mxGeometry y="150" width="350" height="30" as="geometry" />
        </mxCell>
        <mxCell id="uAvPhxqbVSPk3TDM8ARv-15" value="" style="shape=partialRectangle;connectable=0;fillColor=none;top=0;left=0;bottom=0;right=0;editable=1;overflow=hidden;whiteSpace=wrap;html=1;labelBackgroundColor=none;strokeColor=#006658;fontColor=#5C5C5C;rounded=1;sketch=1;curveFitting=1;jiggle=2;" vertex="1" parent="uAvPhxqbVSPk3TDM8ARv-14">
          <mxGeometry width="30" height="30" as="geometry">
            <mxRectangle width="30" height="30" as="alternateBounds" />
          </mxGeometry>
        </mxCell>
        <mxCell id="uAvPhxqbVSPk3TDM8ARv-16" value="m2_totales: float" style="shape=partialRectangle;connectable=0;fillColor=none;top=0;left=0;bottom=0;right=0;align=left;spacingLeft=6;overflow=hidden;whiteSpace=wrap;html=1;labelBackgroundColor=none;strokeColor=#006658;fontColor=#5C5C5C;rounded=1;sketch=1;curveFitting=1;jiggle=2;" vertex="1" parent="uAvPhxqbVSPk3TDM8ARv-14">
          <mxGeometry x="30" width="320" height="30" as="geometry">
            <mxRectangle width="320" height="30" as="alternateBounds" />
          </mxGeometry>
        </mxCell>
        <mxCell id="uAvPhxqbVSPk3TDM8ARv-17" value="" style="shape=tableRow;horizontal=0;startSize=0;swimlaneHead=0;swimlaneBody=0;fillColor=none;collapsible=0;dropTarget=0;points=[[0,0.5],[1,0.5]];portConstraint=eastwest;top=0;left=0;right=0;bottom=0;labelBackgroundColor=none;strokeColor=#006658;fontColor=#5C5C5C;rounded=1;sketch=1;curveFitting=1;jiggle=2;" vertex="1" parent="uAvPhxqbVSPk3TDM8ARv-1">
          <mxGeometry y="180" width="350" height="30" as="geometry" />
        </mxCell>
        <mxCell id="uAvPhxqbVSPk3TDM8ARv-18" value="" style="shape=partialRectangle;connectable=0;fillColor=none;top=0;left=0;bottom=0;right=0;editable=1;overflow=hidden;whiteSpace=wrap;html=1;labelBackgroundColor=none;strokeColor=#006658;fontColor=#5C5C5C;rounded=1;sketch=1;curveFitting=1;jiggle=2;" vertex="1" parent="uAvPhxqbVSPk3TDM8ARv-17">
          <mxGeometry width="30" height="30" as="geometry">
            <mxRectangle width="30" height="30" as="alternateBounds" />
          </mxGeometry>
        </mxCell>
        <mxCell id="uAvPhxqbVSPk3TDM8ARv-19" value="cantidad_estacionamientos: integer" style="shape=partialRectangle;connectable=0;fillColor=none;top=0;left=0;bottom=0;right=0;align=left;spacingLeft=6;overflow=hidden;whiteSpace=wrap;html=1;labelBackgroundColor=none;strokeColor=#006658;fontColor=#5C5C5C;rounded=1;sketch=1;curveFitting=1;jiggle=2;" vertex="1" parent="uAvPhxqbVSPk3TDM8ARv-17">
          <mxGeometry x="30" width="320" height="30" as="geometry">
            <mxRectangle width="320" height="30" as="alternateBounds" />
          </mxGeometry>
        </mxCell>
        <mxCell id="uAvPhxqbVSPk3TDM8ARv-20" value="" style="shape=tableRow;horizontal=0;startSize=0;swimlaneHead=0;swimlaneBody=0;fillColor=none;collapsible=0;dropTarget=0;points=[[0,0.5],[1,0.5]];portConstraint=eastwest;top=0;left=0;right=0;bottom=0;labelBackgroundColor=none;strokeColor=#006658;fontColor=#5C5C5C;rounded=1;sketch=1;curveFitting=1;jiggle=2;" vertex="1" parent="uAvPhxqbVSPk3TDM8ARv-1">
          <mxGeometry y="210" width="350" height="30" as="geometry" />
        </mxCell>
        <mxCell id="uAvPhxqbVSPk3TDM8ARv-21" value="" style="shape=partialRectangle;connectable=0;fillColor=none;top=0;left=0;bottom=0;right=0;editable=1;overflow=hidden;whiteSpace=wrap;html=1;labelBackgroundColor=none;strokeColor=#006658;fontColor=#5C5C5C;rounded=1;sketch=1;curveFitting=1;jiggle=2;" vertex="1" parent="uAvPhxqbVSPk3TDM8ARv-20">
          <mxGeometry width="30" height="30" as="geometry">
            <mxRectangle width="30" height="30" as="alternateBounds" />
          </mxGeometry>
        </mxCell>
        <mxCell id="uAvPhxqbVSPk3TDM8ARv-22" value="cantidad_habitaciones: integer" style="shape=partialRectangle;connectable=0;fillColor=none;top=0;left=0;bottom=0;right=0;align=left;spacingLeft=6;overflow=hidden;whiteSpace=wrap;html=1;labelBackgroundColor=none;strokeColor=#006658;fontColor=#5C5C5C;rounded=1;sketch=1;curveFitting=1;jiggle=2;" vertex="1" parent="uAvPhxqbVSPk3TDM8ARv-20">
          <mxGeometry x="30" width="320" height="30" as="geometry">
            <mxRectangle width="320" height="30" as="alternateBounds" />
          </mxGeometry>
        </mxCell>
        <mxCell id="uAvPhxqbVSPk3TDM8ARv-23" value="" style="shape=tableRow;horizontal=0;startSize=0;swimlaneHead=0;swimlaneBody=0;fillColor=none;collapsible=0;dropTarget=0;points=[[0,0.5],[1,0.5]];portConstraint=eastwest;top=0;left=0;right=0;bottom=0;labelBackgroundColor=none;strokeColor=#006658;fontColor=#5C5C5C;rounded=1;sketch=1;curveFitting=1;jiggle=2;" vertex="1" parent="uAvPhxqbVSPk3TDM8ARv-1">
          <mxGeometry y="240" width="350" height="30" as="geometry" />
        </mxCell>
        <mxCell id="uAvPhxqbVSPk3TDM8ARv-24" value="" style="shape=partialRectangle;connectable=0;fillColor=none;top=0;left=0;bottom=0;right=0;editable=1;overflow=hidden;whiteSpace=wrap;html=1;labelBackgroundColor=none;strokeColor=#006658;fontColor=#5C5C5C;rounded=1;sketch=1;curveFitting=1;jiggle=2;" vertex="1" parent="uAvPhxqbVSPk3TDM8ARv-23">
          <mxGeometry width="30" height="30" as="geometry">
            <mxRectangle width="30" height="30" as="alternateBounds" />
          </mxGeometry>
        </mxCell>
        <mxCell id="uAvPhxqbVSPk3TDM8ARv-25" value="cantidad_baÃ±os: integer" style="shape=partialRectangle;connectable=0;fillColor=none;top=0;left=0;bottom=0;right=0;align=left;spacingLeft=6;overflow=hidden;whiteSpace=wrap;html=1;labelBackgroundColor=none;strokeColor=#006658;fontColor=#5C5C5C;rounded=1;sketch=1;curveFitting=1;jiggle=2;" vertex="1" parent="uAvPhxqbVSPk3TDM8ARv-23">
          <mxGeometry x="30" width="320" height="30" as="geometry">
            <mxRectangle width="320" height="30" as="alternateBounds" />
          </mxGeometry>
        </mxCell>
        <mxCell id="uAvPhxqbVSPk3TDM8ARv-26" value="" style="shape=tableRow;horizontal=0;startSize=0;swimlaneHead=0;swimlaneBody=0;fillColor=none;collapsible=0;dropTarget=0;points=[[0,0.5],[1,0.5]];portConstraint=eastwest;top=0;left=0;right=0;bottom=0;labelBackgroundColor=none;strokeColor=#006658;fontColor=#5C5C5C;rounded=1;sketch=1;curveFitting=1;jiggle=2;" vertex="1" parent="uAvPhxqbVSPk3TDM8ARv-1">
          <mxGeometry y="270" width="350" height="30" as="geometry" />
        </mxCell>
        <mxCell id="uAvPhxqbVSPk3TDM8ARv-27" value="" style="shape=partialRectangle;connectable=0;fillColor=none;top=0;left=0;bottom=0;right=0;editable=1;overflow=hidden;whiteSpace=wrap;html=1;labelBackgroundColor=none;strokeColor=#006658;fontColor=#5C5C5C;rounded=1;sketch=1;curveFitting=1;jiggle=2;" vertex="1" parent="uAvPhxqbVSPk3TDM8ARv-26">
          <mxGeometry width="30" height="30" as="geometry">
            <mxRectangle width="30" height="30" as="alternateBounds" />
          </mxGeometry>
        </mxCell>
        <mxCell id="uAvPhxqbVSPk3TDM8ARv-28" value="direccion: string" style="shape=partialRectangle;connectable=0;fillColor=none;top=0;left=0;bottom=0;right=0;align=left;spacingLeft=6;overflow=hidden;whiteSpace=wrap;html=1;labelBackgroundColor=none;strokeColor=#006658;fontColor=#5C5C5C;rounded=1;sketch=1;curveFitting=1;jiggle=2;" vertex="1" parent="uAvPhxqbVSPk3TDM8ARv-26">
          <mxGeometry x="30" width="320" height="30" as="geometry">
            <mxRectangle width="320" height="30" as="alternateBounds" />
          </mxGeometry>
        </mxCell>
        <mxCell id="uAvPhxqbVSPk3TDM8ARv-29" value="" style="shape=tableRow;horizontal=0;startSize=0;swimlaneHead=0;swimlaneBody=0;fillColor=none;collapsible=0;dropTarget=0;points=[[0,0.5],[1,0.5]];portConstraint=eastwest;top=0;left=0;right=0;bottom=0;labelBackgroundColor=none;strokeColor=#006658;fontColor=#5C5C5C;rounded=1;sketch=1;curveFitting=1;jiggle=2;" vertex="1" parent="uAvPhxqbVSPk3TDM8ARv-1">
          <mxGeometry y="300" width="350" height="30" as="geometry" />
        </mxCell>
        <mxCell id="uAvPhxqbVSPk3TDM8ARv-30" value="" style="shape=partialRectangle;connectable=0;fillColor=none;top=0;left=0;bottom=0;right=0;editable=1;overflow=hidden;whiteSpace=wrap;html=1;labelBackgroundColor=none;strokeColor=#006658;fontColor=#5C5C5C;rounded=1;sketch=1;curveFitting=1;jiggle=2;" vertex="1" parent="uAvPhxqbVSPk3TDM8ARv-29">
          <mxGeometry width="30" height="30" as="geometry">
            <mxRectangle width="30" height="30" as="alternateBounds" />
          </mxGeometry>
        </mxCell>
        <mxCell id="uAvPhxqbVSPk3TDM8ARv-31" value="tipo_inmueble: string" style="shape=partialRectangle;connectable=0;fillColor=none;top=0;left=0;bottom=0;right=0;align=left;spacingLeft=6;overflow=hidden;whiteSpace=wrap;html=1;labelBackgroundColor=none;strokeColor=#006658;fontColor=#5C5C5C;rounded=1;sketch=1;curveFitting=1;jiggle=2;" vertex="1" parent="uAvPhxqbVSPk3TDM8ARv-29">
          <mxGeometry x="30" width="320" height="30" as="geometry">
            <mxRectangle width="320" height="30" as="alternateBounds" />
          </mxGeometry>
        </mxCell>
        <mxCell id="uAvPhxqbVSPk3TDM8ARv-32" value="" style="shape=tableRow;horizontal=0;startSize=0;swimlaneHead=0;swimlaneBody=0;fillColor=none;collapsible=0;dropTarget=0;points=[[0,0.5],[1,0.5]];portConstraint=eastwest;top=0;left=0;right=0;bottom=0;labelBackgroundColor=none;strokeColor=#006658;fontColor=#5C5C5C;rounded=1;sketch=1;curveFitting=1;jiggle=2;" vertex="1" parent="uAvPhxqbVSPk3TDM8ARv-1">
          <mxGeometry y="330" width="350" height="30" as="geometry" />
        </mxCell>
        <mxCell id="uAvPhxqbVSPk3TDM8ARv-33" value="" style="shape=partialRectangle;connectable=0;fillColor=none;top=0;left=0;bottom=0;right=0;editable=1;overflow=hidden;whiteSpace=wrap;html=1;labelBackgroundColor=none;strokeColor=#006658;fontColor=#5C5C5C;rounded=1;sketch=1;curveFitting=1;jiggle=2;" vertex="1" parent="uAvPhxqbVSPk3TDM8ARv-32">
          <mxGeometry width="30" height="30" as="geometry">
            <mxRectangle width="30" height="30" as="alternateBounds" />
          </mxGeometry>
        </mxCell>
        <mxCell id="uAvPhxqbVSPk3TDM8ARv-34" value="precio_mensual: decimal" style="shape=partialRectangle;connectable=0;fillColor=none;top=0;left=0;bottom=0;right=0;align=left;spacingLeft=6;overflow=hidden;whiteSpace=wrap;html=1;labelBackgroundColor=none;strokeColor=#006658;fontColor=#5C5C5C;rounded=1;sketch=1;curveFitting=1;jiggle=2;" vertex="1" parent="uAvPhxqbVSPk3TDM8ARv-32">
          <mxGeometry x="30" width="320" height="30" as="geometry">
            <mxRectangle width="320" height="30" as="alternateBounds" />
          </mxGeometry>
        </mxCell>
        <mxCell id="uAvPhxqbVSPk3TDM8ARv-35" value="" style="shape=tableRow;horizontal=0;startSize=0;swimlaneHead=0;swimlaneBody=0;fillColor=none;collapsible=0;dropTarget=0;points=[[0,0.5],[1,0.5]];portConstraint=eastwest;top=0;left=0;right=0;bottom=0;labelBackgroundColor=none;strokeColor=#006658;fontColor=#5C5C5C;rounded=1;sketch=1;curveFitting=1;jiggle=2;" vertex="1" parent="uAvPhxqbVSPk3TDM8ARv-1">
          <mxGeometry y="360" width="350" height="30" as="geometry" />
        </mxCell>
        <mxCell id="uAvPhxqbVSPk3TDM8ARv-36" value="FK" style="shape=partialRectangle;connectable=0;fillColor=none;top=0;left=0;bottom=0;right=0;editable=1;overflow=hidden;whiteSpace=wrap;html=1;labelBackgroundColor=none;strokeColor=#006658;fontColor=#5C5C5C;rounded=1;sketch=1;curveFitting=1;jiggle=2;" vertex="1" parent="uAvPhxqbVSPk3TDM8ARv-35">
          <mxGeometry width="30" height="30" as="geometry">
            <mxRectangle width="30" height="30" as="alternateBounds" />
          </mxGeometry>
        </mxCell>
        <mxCell id="uAvPhxqbVSPk3TDM8ARv-37" value="arrendador_id: integer" style="shape=partialRectangle;connectable=0;fillColor=none;top=0;left=0;bottom=0;right=0;align=left;spacingLeft=6;overflow=hidden;whiteSpace=wrap;html=1;labelBackgroundColor=none;strokeColor=#006658;fontColor=#5C5C5C;rounded=1;sketch=1;curveFitting=1;jiggle=2;" vertex="1" parent="uAvPhxqbVSPk3TDM8ARv-35">
          <mxGeometry x="30" width="320" height="30" as="geometry">
            <mxRectangle width="320" height="30" as="alternateBounds" />
          </mxGeometry>
        </mxCell>
        <mxCell id="uAvPhxqbVSPk3TDM8ARv-38" value="" style="shape=tableRow;horizontal=0;startSize=0;swimlaneHead=0;swimlaneBody=0;fillColor=none;collapsible=0;dropTarget=0;points=[[0,0.5],[1,0.5]];portConstraint=eastwest;top=0;left=0;right=0;bottom=0;labelBackgroundColor=none;strokeColor=#006658;fontColor=#5C5C5C;rounded=1;sketch=1;curveFitting=1;jiggle=2;" vertex="1" parent="uAvPhxqbVSPk3TDM8ARv-1">
          <mxGeometry y="390" width="350" height="30" as="geometry" />
        </mxCell>
        <mxCell id="uAvPhxqbVSPk3TDM8ARv-39" value="FK" style="shape=partialRectangle;connectable=0;fillColor=none;top=0;left=0;bottom=0;right=0;editable=1;overflow=hidden;whiteSpace=wrap;html=1;labelBackgroundColor=none;strokeColor=#006658;fontColor=#5C5C5C;rounded=1;sketch=1;curveFitting=1;jiggle=2;" vertex="1" parent="uAvPhxqbVSPk3TDM8ARv-38">
          <mxGeometry width="30" height="30" as="geometry">
            <mxRectangle width="30" height="30" as="alternateBounds" />
          </mxGeometry>
        </mxCell>
        <mxCell id="uAvPhxqbVSPk3TDM8ARv-40" value="region_id: integer" style="shape=partialRectangle;connectable=0;fillColor=none;top=0;left=0;bottom=0;right=0;align=left;spacingLeft=6;overflow=hidden;whiteSpace=wrap;html=1;labelBackgroundColor=none;strokeColor=#006658;fontColor=#5C5C5C;rounded=1;sketch=1;curveFitting=1;jiggle=2;" vertex="1" parent="uAvPhxqbVSPk3TDM8ARv-38">
          <mxGeometry x="30" width="320" height="30" as="geometry">
            <mxRectangle width="320" height="30" as="alternateBounds" />
          </mxGeometry>
        </mxCell>
        <mxCell id="uAvPhxqbVSPk3TDM8ARv-41" value="" style="shape=tableRow;horizontal=0;startSize=0;swimlaneHead=0;swimlaneBody=0;fillColor=none;collapsible=0;dropTarget=0;points=[[0,0.5],[1,0.5]];portConstraint=eastwest;top=0;left=0;right=0;bottom=0;labelBackgroundColor=none;strokeColor=#006658;fontColor=#5C5C5C;rounded=1;sketch=1;curveFitting=1;jiggle=2;" vertex="1" parent="uAvPhxqbVSPk3TDM8ARv-1">
          <mxGeometry y="420" width="350" height="30" as="geometry" />
        </mxCell>
        <mxCell id="uAvPhxqbVSPk3TDM8ARv-42" value="FK" style="shape=partialRectangle;connectable=0;fillColor=none;top=0;left=0;bottom=0;right=0;editable=1;overflow=hidden;whiteSpace=wrap;html=1;labelBackgroundColor=none;strokeColor=#006658;fontColor=#5C5C5C;rounded=1;sketch=1;curveFitting=1;jiggle=2;" vertex="1" parent="uAvPhxqbVSPk3TDM8ARv-41">
          <mxGeometry width="30" height="30" as="geometry">
            <mxRectangle width="30" height="30" as="alternateBounds" />
          </mxGeometry>
        </mxCell>
        <mxCell id="uAvPhxqbVSPk3TDM8ARv-43" value="comuna_id: integer" style="shape=partialRectangle;connectable=0;fillColor=none;top=0;left=0;bottom=0;right=0;align=left;spacingLeft=6;overflow=hidden;whiteSpace=wrap;html=1;labelBackgroundColor=none;strokeColor=#006658;fontColor=#5C5C5C;rounded=1;sketch=1;curveFitting=1;jiggle=2;" vertex="1" parent="uAvPhxqbVSPk3TDM8ARv-41">
          <mxGeometry x="30" width="320" height="30" as="geometry">
            <mxRectangle width="320" height="30" as="alternateBounds" />
          </mxGeometry>
        </mxCell>
        <mxCell id="uAvPhxqbVSPk3TDM8ARv-44" value="" style="shape=tableRow;horizontal=0;startSize=0;swimlaneHead=0;swimlaneBody=0;fillColor=none;collapsible=0;dropTarget=0;points=[[0,0.5],[1,0.5]];portConstraint=eastwest;top=0;left=0;right=0;bottom=0;labelBackgroundColor=none;strokeColor=#006658;fontColor=#5C5C5C;rounded=1;sketch=1;curveFitting=1;jiggle=2;" vertex="1" parent="uAvPhxqbVSPk3TDM8ARv-1">
          <mxGeometry y="450" width="350" height="30" as="geometry" />
        </mxCell>
        <mxCell id="uAvPhxqbVSPk3TDM8ARv-45" value="FK" style="shape=partialRectangle;connectable=0;fillColor=none;top=0;left=0;bottom=0;right=0;editable=1;overflow=hidden;whiteSpace=wrap;html=1;labelBackgroundColor=none;strokeColor=#006658;fontColor=#5C5C5C;rounded=1;sketch=1;curveFitting=1;jiggle=2;" vertex="1" parent="uAvPhxqbVSPk3TDM8ARv-44">
          <mxGeometry width="30" height="30" as="geometry">
            <mxRectangle width="30" height="30" as="alternateBounds" />
          </mxGeometry>
        </mxCell>
        <mxCell id="uAvPhxqbVSPk3TDM8ARv-46" value="tipo_inmueble_id" style="shape=partialRectangle;connectable=0;fillColor=none;top=0;left=0;bottom=0;right=0;align=left;spacingLeft=6;overflow=hidden;whiteSpace=wrap;html=1;labelBackgroundColor=none;strokeColor=#006658;fontColor=#5C5C5C;rounded=1;sketch=1;curveFitting=1;jiggle=2;" vertex="1" parent="uAvPhxqbVSPk3TDM8ARv-44">
          <mxGeometry x="30" width="320" height="30" as="geometry">
            <mxRectangle width="320" height="30" as="alternateBounds" />
          </mxGeometry>
        </mxCell>
      </root>
    </mxGraphModel>
  </diagram>
</mxfile>
